<?xml version="1.0" standalone="no"?>
<!DOCTYPE svg PUBLIC "-//W3C//DTD SVG 20010904//EN"
 "http://www.w3.org/TR/2001/REC-SVG-20010904/DTD/svg10.dtd">
<svg version="1.0" xmlns="http://www.w3.org/2000/svg"
 width="565.000000pt" height="329.000000pt" viewBox="0 0 465.000000 229.000000"
 preserveAspectRatio="xMidYMid meet">
<metadata>
Created by potrace 1.16, written by Peter Selinger 2001-2019
</metadata>
<g transform="translate(0.000000,229.000000) scale(0.100000,-0.100000)"
fill="#000000" stroke="none">
<path d="M0 1145 l0 -1145 2325 0 2325 0 0 1145 0 1145 -2325 0 -2325 0 0
-1145z m1671 466 l29 -29 0 -412 0 -412 -30 -29 -29 -30 -465 3 -465 3 -23 23
-23 23 -3 415 -3 415 30 29 29 30 462 0 462 0 29 -29z m291 -406 c1 -74 2
-152 3 -172 0 -34 -3 -38 -26 -41 l-26 -3 -7 109 c-4 60 -4 139 0 175 6 62 9
67 30 67 24 0 24 0 26 -135z m152 30 l41 -100 3 103 3 102 29 0 30 0 0 -176 0
-175 -27 3 c-24 3 -32 14 -66 96 -22 50 -43 92 -48 92 -5 0 -9 -43 -9 -95 0
-95 0 -95 -25 -95 l-25 0 0 176 0 175 27 -3 c24 -3 31 -14 67 -103z m300 96
c12 -19 -6 -41 -33 -39 -65 5 -70 -44 -10 -99 73 -68 90 -133 44 -178 -19 -20
-34 -25 -72 -25 -60 0 -77 10 -68 39 7 22 14 22 62 4 6 -3 21 5 33 17 28 28
20 50 -41 109 -43 42 -49 52 -49 90 0 57 33 91 89 91 22 0 42 -4 45 -9z m256
-16 c0 -21 -5 -25 -30 -25 l-30 0 0 -150 0 -150 -25 0 -24 0 -3 148 -3 147
-25 4 c-28 3 -41 18 -33 38 4 9 28 13 89 13 83 0 84 0 84 -25z m620 -32 c6
-32 23 -107 36 -167 13 -60 24 -113 24 -117 0 -5 -11 -9 -25 -9 -18 0 -26 7
-31 26 -6 22 -11 25 -48 22 -34 -2 -42 -7 -44 -26 -3 -19 -9 -23 -30 -20 -15
2 -26 8 -25 13 2 17 64 299 69 318 4 11 15 17 34 17 27 0 29 -4 40 -57z m247
42 c28 -19 46 -84 37 -130 -8 -42 -45 -75 -85 -75 -29 0 -29 0 -29 -65 0 -63
-1 -65 -25 -65 l-25 0 0 175 0 175 53 0 c31 0 61 -6 74 -15z m233 -10 c30 -32
39 -109 16 -153 -15 -29 -28 -36 -81 -44 -17 -3 -20 -12 -23 -66 -3 -58 -4
-62 -27 -62 l-25 0 0 175 0 175 58 0 c49 0 62 -4 82 -25z m-772 -150 c45 -91
82 -167 82 -170 0 -3 -76 -5 -170 -5 -93 0 -170 2 -170 5 0 10 165 335 170
335 3 0 42 -74 88 -165z"/>
<path d="M1084 1450 c-30 -12 -36 -25 -36 -70 1 -29 -3 -38 -13 -34 -20 8
-102 -51 -120 -86 -23 -45 -19 -79 13 -97 25 -14 27 -21 28 -77 1 -72 24 -128
61 -145 21 -10 31 -8 60 9 40 23 44 24 41 8 -5 -19 78 -59 126 -61 55 -2 86
22 86 68 0 26 5 33 34 43 44 16 116 94 116 126 0 15 -12 34 -30 49 -27 23 -30
32 -30 82 0 60 -17 112 -43 134 -24 19 -64 17 -88 -5 -19 -18 -21 -18 -30 -1
-22 39 -133 75 -175 57z"/>
<path d="M2842 1153 c-34 -71 -62 -131 -62 -135 0 -5 59 -8 130 -8 72 0 130 4
130 8 0 24 -30 32 -117 32 l-93 0 37 75 c21 41 40 75 43 75 6 -1 40 -67 40
-80 0 -5 -15 -10 -32 -12 -22 -2 -34 -9 -36 -20 -3 -16 5 -18 62 -18 36 0 66
4 66 9 0 11 -88 183 -99 194 -4 4 -35 -50 -69 -120z"/>
</g>
</svg>
